<svg width="80" height="74" viewBox="0 0 80 74" fill="none" xmlns="http://www.w3.org/2000/svg">
<circle cx="41.5" cy="37.5" r="36.5" fill="#09B2D2"/>
<mask id="mask0_7_126" style="mask-type:luminance" maskUnits="userSpaceOnUse" x="0" y="0" width="80" height="74">
<path d="M79.4327 0.546875H0.967773V73.9495H79.4327V0.546875Z" fill="white"/>
</mask>
<g mask="url(#mask0_7_126)">
<path d="M40.2809 74.3756C35.0844 74.3756 30.0425 73.4033 25.2954 71.4856C20.711 69.6337 16.594 66.9827 13.0589 63.6064C9.52383 60.2301 6.7482 56.2981 4.80914 51.9196C2.80128 47.3857 1.7832 42.5703 1.7832 37.6073C1.7832 32.6442 2.80128 27.8288 4.80914 23.2949C6.7482 18.9164 9.52383 14.9844 13.0589 11.6081C16.594 8.23178 20.711 5.58083 25.2954 3.72888C30.0425 1.81121 35.0844 0.838867 40.2809 0.838867C45.4774 0.838867 50.5193 1.81121 55.2664 3.72888C59.8509 5.58083 63.9678 8.23178 67.5029 11.6081C71.038 14.9844 73.8136 18.9164 75.7527 23.2949C77.7605 27.8288 78.7786 32.6442 78.7786 37.6073C78.7786 42.5703 77.7605 47.3857 75.7527 51.9196C73.8136 56.2981 71.038 60.2301 67.5029 63.6064C63.9678 66.9827 59.8509 69.6337 55.2664 71.4856C50.5193 73.4033 45.4774 74.3756 40.2809 74.3756ZM40.2809 3.66277C35.4823 3.66277 30.8279 4.56006 26.4472 6.32971C22.2152 8.0393 18.4141 10.487 15.1496 13.6049C11.8851 16.7227 9.32229 20.353 7.53229 24.395C5.67941 28.5789 4.73992 33.0242 4.73992 37.6073C4.73992 42.1903 5.67941 46.6356 7.53229 50.8195C9.32229 54.8615 11.8851 58.4918 15.1496 61.6096C18.4141 64.7275 22.2152 67.1752 26.4472 68.8848C30.8279 70.6544 35.4823 71.5517 40.2809 71.5517C45.0796 71.5517 49.7339 70.6544 54.1146 68.8848C58.3466 67.1752 62.1477 64.7275 65.4122 61.6096C68.6767 58.4918 71.2395 54.8615 73.0295 50.8195C74.8824 46.6356 75.8219 42.1903 75.8219 37.6073C75.8219 33.0242 74.8824 28.5789 73.0295 24.395C71.2395 20.353 68.6767 16.7227 65.4122 13.6049C62.1477 10.487 58.3466 8.0393 54.1146 6.32971C49.7339 4.56006 45.0796 3.66277 40.2809 3.66277Z" fill="#DDCF51"/>
<g style="mix-blend-mode:screen" opacity="0.75">
<path d="M40.2809 74.3756C35.0844 74.3756 30.0425 73.4033 25.2954 71.4856C20.711 69.6337 16.594 66.9827 13.0589 63.6064C9.52383 60.2301 6.7482 56.2981 4.80914 51.9196C2.80128 47.3857 1.7832 42.5703 1.7832 37.6073C1.7832 32.6442 2.80128 27.8288 4.80914 23.2949C6.7482 18.9164 9.52383 14.9844 13.0589 11.6081C16.594 8.23178 20.711 5.58083 25.2954 3.72888C30.0425 1.81121 35.0844 0.838867 40.2809 0.838867C45.4774 0.838867 50.5193 1.81121 55.2664 3.72888C59.8509 5.58083 63.9678 8.23178 67.5029 11.6081C71.038 14.9844 73.8136 18.9164 75.7527 23.2949C77.7605 27.8288 78.7786 32.6442 78.7786 37.6073C78.7786 42.5703 77.7605 47.3857 75.7527 51.9196C73.8136 56.2981 71.038 60.2301 67.5029 63.6064C63.9678 66.9827 59.8509 69.6337 55.2664 71.4856C50.5193 73.4033 45.4774 74.3756 40.2809 74.3756ZM40.2809 3.66277C35.4823 3.66277 30.8279 4.56006 26.4472 6.32971C22.2152 8.0393 18.4141 10.487 15.1496 13.6049C11.8851 16.7227 9.32229 20.353 7.53229 24.395C5.67941 28.5789 4.73992 33.0242 4.73992 37.6073C4.73992 42.1903 5.67941 46.6356 7.53229 50.8195C9.32229 54.8615 11.8851 58.4918 15.1496 61.6096C18.4141 64.7275 22.2152 67.1752 26.4472 68.8848C30.8279 70.6544 35.4823 71.5517 40.2809 71.5517C45.0796 71.5517 49.7339 70.6544 54.1146 68.8848C58.3466 67.1752 62.1477 64.7275 65.4122 61.6096C68.6767 58.4918 71.2395 54.8615 73.0295 50.8195C74.8824 46.6356 75.8219 42.1903 75.8219 37.6073C75.8219 33.0242 74.8824 28.5789 73.0295 24.395C71.2395 20.353 68.6767 16.7227 65.4122 13.6049C62.1477 10.487 58.3466 8.0393 54.1146 6.32971C49.7339 4.56006 45.0796 3.66277 40.2809 3.66277Z" fill="black"/>
</g>
<path d="M47.3426 19.7978C49.5042 19.7978 51.2564 18.1242 51.2564 16.0598C51.2564 13.9953 49.5042 12.3217 47.3426 12.3217C45.181 12.3217 43.4287 13.9953 43.4287 16.0598C43.4287 18.1242 45.181 19.7978 47.3426 19.7978Z" fill="#34BEDA"/>
<path d="M47.3426 19.7978C49.5042 19.7978 51.2564 18.1242 51.2564 16.0598C51.2564 13.9953 49.5042 12.3217 47.3426 12.3217C45.181 12.3217 43.4287 13.9953 43.4287 16.0598C43.4287 18.1242 45.181 19.7978 47.3426 19.7978Z" fill="#34BEDA"/>
<path d="M23.489 63.1332C24.5789 63.1332 25.4624 62.2894 25.4624 61.2485C25.4624 60.2076 24.5789 59.3638 23.489 59.3638C22.3992 59.3638 21.5157 60.2076 21.5157 61.2485C21.5157 62.2894 22.3992 63.1332 23.489 63.1332Z" fill="#34BEDA"/>
<path d="M23.489 63.1332C24.5789 63.1332 25.4624 62.2894 25.4624 61.2485C25.4624 60.2076 24.5789 59.3638 23.489 59.3638C22.3992 59.3638 21.5157 60.2076 21.5157 61.2485C21.5157 62.2894 22.3992 63.1332 23.489 63.1332Z" fill="#34BEDA"/>
<path d="M45.6296 15.5473C45.9687 15.5473 46.2435 15.2847 46.2435 14.9609C46.2435 14.6371 45.9687 14.3745 45.6296 14.3745C45.2905 14.3745 45.0157 14.6371 45.0157 14.9609C45.0157 15.2847 45.2905 15.5473 45.6296 15.5473Z" fill="#34BEDA"/>
<path d="M45.6296 15.5473C45.9687 15.5473 46.2435 15.2847 46.2435 14.9609C46.2435 14.6371 45.9687 14.3745 45.6296 14.3745C45.2905 14.3745 45.0157 14.6371 45.0157 14.9609C45.0157 15.2847 45.2905 15.5473 45.6296 15.5473Z" fill="white" fill-opacity="0.22"/>
<path d="M40.8963 25.3678C39.865 25.3678 39.0289 24.5693 39.0289 23.5843C39.0289 22.5993 39.865 21.8008 40.8963 21.8008C41.9276 21.8008 42.7637 22.5993 42.7637 23.5843C42.7637 24.5693 41.9276 25.3678 40.8963 25.3678Z" fill="#34BEDA"/>
<path d="M40.8963 25.3678C39.865 25.3678 39.0289 24.5693 39.0289 23.5843C39.0289 22.5993 39.865 21.8008 40.8963 21.8008C41.9276 21.8008 42.7637 22.5993 42.7637 23.5843C42.7637 24.5693 41.9276 25.3678 40.8963 25.3678Z" fill="#34BEDA"/>
<path d="M15.8397 21.8026C15.1132 21.8026 14.5242 21.24 14.5242 20.5461C14.5242 19.8522 15.1132 19.2896 15.8397 19.2896C16.5663 19.2896 17.1553 19.8522 17.1553 20.5461C17.1553 21.24 16.5663 21.8026 15.8397 21.8026Z" fill="#34BEDA"/>
<path d="M15.8397 21.8026C15.1132 21.8026 14.5242 21.24 14.5242 20.5461C14.5242 19.8522 15.1132 19.2896 15.8397 19.2896C16.5663 19.2896 17.1553 19.8522 17.1553 20.5461C17.1553 21.24 16.5663 21.8026 15.8397 21.8026Z" fill="#34BEDA"/>
<path d="M68.2517 52.548C67.2204 52.548 66.3843 51.7495 66.3843 50.7645C66.3843 49.7795 67.2204 48.981 68.2517 48.981C69.2831 48.981 70.1191 49.7795 70.1191 50.7645C70.1191 51.7495 69.2831 52.548 68.2517 52.548Z" fill="#34BEDA"/>
<path d="M68.2517 52.548C67.2204 52.548 66.3843 51.7495 66.3843 50.7645C66.3843 49.7795 67.2204 48.981 68.2517 48.981C69.2831 48.981 70.1191 49.7795 70.1191 50.7645C70.1191 51.7495 69.2831 52.548 68.2517 52.548Z" fill="#34BEDA"/>
<path d="M71.3359 26.9194C71.2783 26.957 71.1532 27.0255 70.8266 27.1296C70.2972 27.2882 69.7633 27.387 69.1865 27.4385C68.8882 27.4655 68.7161 27.4665 68.6121 27.4554C68.5622 27.3156 68.4935 27.1204 68.4935 27.1204L68.3694 26.7676C68.3674 26.7517 68.3568 26.675 68.3568 26.675C68.3568 26.675 68.3548 26.6316 68.3568 26.6172C68.5193 26.5743 68.7979 26.5193 69.3 26.4755L70.8236 26.4538C71.1118 26.4788 71.248 26.5029 71.3389 26.5174C71.3495 26.689 71.351 26.8225 71.3359 26.9194ZM77.0149 27.1513C76.9619 26.6018 76.43 24.9446 76.43 24.9446C75.9526 23.4595 75.5337 22.6068 74.7071 22.3499C73.8183 22.0703 72.5259 22.0274 70.5153 22.2057C68.0822 22.4164 66.7191 22.9389 66.2104 23.8451C66.0267 24.1705 65.7723 24.8236 65.6916 26.6919C65.6391 27.8854 65.678 29.1213 65.8067 30.4762C66.0555 33.0661 66.4526 33.8364 66.7756 34.2157C67.4448 34.9874 68.9634 35.2077 71.8456 34.9547L74.5769 34.6365L76.2635 34.3946L76.8671 29.6819L76.533 29.2832C76.269 29.1825 75.6614 29.3526 75.1174 29.4047C75.0588 29.4057 72.2407 29.851 72.2407 29.851C71.8824 29.879 71.4671 30.2236 71.5221 30.7881C71.5221 30.7881 71.5544 30.8546 71.5665 30.8811C71.1451 30.899 70.2397 30.9351 69.6417 30.9582C69.5503 30.6478 69.4605 30.2058 69.3959 29.8303C69.5559 29.8212 72.8463 29.3608 74.4396 28.8706C76.2039 28.3235 76.6591 28.0849 76.8726 27.7485C76.8746 27.7408 76.8802 27.7364 76.8867 27.7263C76.8968 27.7056 76.9256 27.6863 76.9327 27.6622C76.9327 27.6622 76.9095 27.6882 76.9024 27.6887C76.9841 27.5581 77.0371 27.3884 77.0149 27.1513Z" fill="#A8AC06"/>
<path d="M72.6132 26.6808L72.6126 26.6669C72.5561 26.8896 72.2049 27.104 71.5831 27.2983C71.0088 27.4689 70.4072 27.5832 69.7734 27.6405C69.0956 27.7018 68.7459 27.5875 68.5399 27.5085C67.9162 27.2448 68.0474 25.739 68.0958 25.6238C68.1917 25.3991 68.7408 25.2401 69.7431 25.1543C70.3371 25.1003 70.8847 25.1003 71.3924 25.135C71.946 25.1755 72.6 25.2994 72.6419 25.7303C72.6813 26.1472 72.7005 26.3468 72.6132 26.6808ZM75.9642 24.6617C75.5175 23.2889 75.1855 22.7109 74.758 22.5755C73.9465 22.3219 72.8625 22.2593 71.1032 22.4126C69.0138 22.5952 67.7925 23.0127 67.4352 23.647C67.2066 24.0558 67.0643 24.9027 67.0052 26.1665C66.9548 27.3528 66.9972 28.5699 67.1183 29.8472C67.2919 31.6485 67.5639 32.7581 67.9147 33.1775C68.3709 33.6971 69.8253 33.8465 72.2861 33.6344C73.0714 33.5641 73.9662 33.4551 74.9806 33.3178C75.348 33.2681 75.7007 33.2098 76.0671 33.164L76.5117 29.6279C76.3709 29.5773 72.8468 30.028 72.8539 30.1017C72.8604 30.1475 72.9987 30.3249 73.0578 30.4931C73.1173 30.643 73.1269 30.8469 73.1325 30.8932C73.14 30.9708 73.1259 31.0036 73.0825 31.0065C72.9261 31.0383 72.7312 31.0552 72.5082 31.0754C71.7885 31.1381 70.8231 31.1733 69.6189 31.1867C69.3298 30.7934 69.0774 29.224 69.0376 28.8417C69.033 28.7477 69.0234 28.6533 69.0275 28.5472C69.3979 28.5448 69.7991 28.525 70.2119 28.4894C71.6588 28.3636 73.1607 28.0589 74.7045 27.5841C76.105 27.1503 76.5698 26.9329 76.5117 26.796C76.5284 26.8129 76.5259 26.797 76.5173 26.7175C76.4618 26.1318 76.3023 25.7481 75.9642 24.6617Z" fill="#FFF64D"/>
<path d="M60.4283 25.9864C60.4283 25.9864 60.3168 25.9512 60.1992 25.917C60.0614 25.6133 59.9115 25.1911 59.7985 24.4647C59.5835 23.0875 59.697 22.6065 59.753 22.4585C59.8378 22.4151 60.0175 22.3534 60.3455 22.2903C60.3733 22.6234 60.4576 23.4385 60.5858 24.2463C60.6796 24.8672 60.7992 25.4649 60.9299 25.7975C60.9299 25.7975 60.9698 25.9146 61.0203 26.064C60.8184 26.0457 60.616 26.0235 60.4283 25.9864ZM65.8384 26.2554C65.8046 26.0944 65.7697 25.9098 65.7415 25.7035C65.531 24.3615 65.3544 22.2223 65.3862 21.7123C65.4533 20.4148 65.4281 19.4661 65.311 18.7238L65.2348 18.1984L64.6892 18.0852C63.9009 17.9174 62.7437 17.9772 61.0521 18.264C60.7962 18.3001 60.3824 18.5113 60.3183 19.2343C59.9993 19.2704 59.5789 19.2984 58.9269 19.3018C57.7571 19.3172 57.106 19.35 56.7331 19.4025C55.2695 19.6107 54.8244 20.3116 54.7149 20.8645C54.2284 23.2278 54.0775 24.9062 54.2486 25.9936C54.4293 27.1558 54.9854 28.1044 55.9039 28.8154C56.4146 29.2188 57.3261 29.3282 59.0531 29.1909C59.0531 29.1909 60.6483 29.0034 61.6254 28.8824C61.798 30.0252 61.8182 30.931 61.7208 31.6429C61.3973 31.7595 60.8305 31.9003 60.3364 31.9866C60.6943 30.8659 60.7069 30.7936 60.6746 30.5916L60.5752 29.9626L59.859 29.9404L57.2161 29.8069C56.3102 29.749 55.8792 29.7346 55.6597 30.232C55.4381 30.6451 55.3886 31.211 55.5128 32.0194C55.6152 32.6841 55.8358 33.4731 56.1946 34.5181C56.7169 35.9546 56.8547 36.3416 57.5648 36.2428C57.9393 36.1758 58.773 35.9907 61.8767 35.0604C65.854 33.8742 66.1412 33.5768 66.3123 33.2311C66.6201 32.7723 66.82 31.9061 66.4046 29.2217L65.8384 26.2554Z" fill="#A8AC06"/>
<path d="M62.5582 26.2465C61.8946 26.2966 61.293 26.2696 60.7339 26.1501C60.4982 26.0961 60.2756 26.0262 60.0843 25.9568C59.826 25.4907 59.6195 24.8337 59.4873 23.995C59.2774 22.6367 59.3183 21.7589 59.6165 21.3545C59.9173 21.086 60.5335 20.9284 61.4788 20.8503C61.5534 20.8397 61.5883 21.0653 61.613 21.5034C61.6312 21.836 61.8921 24.2534 62.1616 24.9436C62.4195 25.6247 62.5582 26.0306 62.5794 26.1597C62.5885 26.2132 62.5714 26.2431 62.5582 26.2465ZM65.5363 25.8252C65.2895 24.6467 65.0281 21.7811 65.0675 21.086C65.1255 19.9171 65.0756 19.0991 64.9645 18.3723C64.2696 18.2248 63.1921 18.1766 61.6781 18.4335C61.6044 18.445 61.561 19.3238 61.4833 19.3329C61.0518 19.4226 60.3564 19.4794 59.4116 19.4872C58.3816 19.5002 57.6791 19.5296 57.3309 19.5787C56.5269 19.692 56.0707 19.9726 55.9809 20.431C55.5206 22.6781 55.3692 24.3025 55.5251 25.2984C55.675 26.2619 56.1232 27.0442 56.8888 27.6342C57.2123 27.8907 58.0752 27.9519 59.4641 27.8449C60.1358 27.7895 61.2224 27.6661 62.7288 27.4506C62.7788 27.4438 62.8247 27.6689 62.8964 28.1278C63.1159 29.5435 63.1391 30.6555 62.9691 31.4947C62.9161 31.7598 61.2996 32.1151 60.6748 32.2052C60.4548 32.2361 60.1974 32.2607 59.9471 32.2515C59.6922 32.2607 59.5877 32.2611 59.6291 32.2558C59.6751 32.2486 59.8017 31.8996 60.0389 31.2108C60.26 30.5191 60.371 30.1595 60.3654 30.1181C60.32 30.1239 59.1875 30.0848 58.6884 30.0564C57.4908 29.9865 56.8716 29.9282 56.8605 29.9552C56.7081 30.2241 56.6869 30.682 56.7888 31.3265C56.8903 31.9825 57.1169 32.7687 57.4378 33.6927C57.7316 34.4963 57.882 34.9055 57.9259 34.8963C58.4497 34.8072 59.8421 34.423 62.1197 33.7472C64.6501 32.989 65.9855 32.4964 66.0874 32.2814C66.3988 31.8818 66.3933 30.6946 66.0899 28.7491C65.9734 27.9832 65.7887 27.0062 65.5363 25.8252Z" fill="#FFF64D"/>
<path d="M55.1669 27.9923C54.7288 26.0291 54.1621 24.9821 53.3233 24.596C52.9948 24.4317 52.365 24.249 50.5385 24.3218C49.5761 24.3632 48.748 24.4587 47.9864 24.5931C47.9531 24.395 47.6008 22.9148 47.6008 22.9148L46.7954 23.2372L43.3682 24.5999L43.5524 25.347L43.6967 25.8204C43.9193 26.822 44.0581 28.7207 44.1095 31.4677L44.1908 36.1597C44.1908 36.1597 44.0288 36.9266 45.2117 36.6687C46.0015 36.4951 47.887 35.9895 49.0548 35.6694C49.6796 35.5446 49.7911 34.3902 49.7911 34.3902L49.565 33.4763L48.9852 30.4559C48.8701 29.7131 48.8176 29.2735 48.7939 29.0031C49.2002 28.8937 49.4439 28.8306 49.9183 28.7062C50.1121 29.3251 50.3387 30.1479 50.5789 31.1071L50.9635 32.8771L51.2214 33.978C51.4909 34.8423 52.4598 34.6476 52.9261 34.5497C53.9037 34.3506 54.5875 34.1549 55.067 33.9404C55.6822 33.6734 55.7084 33.0174 55.6277 31.4667C55.556 30.2111 55.4001 29.0436 55.1669 27.9923Z" fill="#A8AC06"/>
<path d="M54.8645 27.8149C54.4971 26.1693 54.0141 25.2655 53.3757 24.9131C53.0017 24.7324 52.2064 24.4803 50.9956 24.5256C49.7764 24.5796 47.8278 24.9141 47.8228 24.9507C47.7748 24.5319 47.4049 23.4251 47.4357 23.3432C46.3158 23.8291 45.4922 24.1862 44.7402 24.4456C44.8079 24.6003 44.8644 24.8052 44.9189 25.0495C45.1581 26.1008 45.3029 28.0342 45.3544 30.842C45.4195 33.8319 45.4281 35.3267 45.4281 35.3267C47.0052 34.8779 48.3789 34.5236 49.5417 34.2387C49.4902 34.1457 49.3857 33.7399 49.2278 33.0241C48.9936 31.9896 48.7988 30.9789 48.6373 29.9632C48.4465 28.75 48.3789 28.0323 48.4551 27.8057L50.8851 27.155C51.1183 27.7652 51.4287 28.8127 51.8011 30.3219C52.1428 31.713 52.2826 32.676 52.4304 33.1455C52.4647 33.2492 52.5208 33.3268 53.198 33.1904C54.0701 33.0125 54.7317 32.8308 55.1658 32.6365C55.2995 32.5796 55.3267 31.9916 55.2722 30.894C55.2061 29.7343 55.1037 28.8787 54.8645 27.8149Z" fill="#FFF64D"/>
<path d="M25.2863 32.4615C25.0527 31.3119 24.5889 29.8981 23.7506 28.7562C22.8674 27.5444 21.0986 26.6801 18.6489 26.0945L15.1616 25.3343L13.0193 24.8803C11.5825 24.5564 11.3417 24.525 11.0288 24.1066C10.7164 23.6887 11.0081 22.9252 12.3793 22.6731C14.016 22.3694 16.393 22.6138 19.4639 23.3995C19.8399 23.494 20.2255 23.5986 20.6226 23.7109L22.0135 21.8199L21.0082 14.6634L20.0201 14.5791C18.8316 14.4754 17.6405 14.4484 16.4505 14.486C14.5474 14.5444 12.6483 14.7685 10.7725 15.1151C8.73762 15.492 7.14084 16.0237 6.02955 16.7038L5.95738 16.751L5.88824 16.8036C4.64574 17.8168 3.30432 19.7502 4.00026 23.1797C4.2743 24.5323 4.79967 25.8086 5.55617 26.9862C5.68183 27.1819 5.81153 27.3747 5.94931 27.5646C6.82592 28.7398 8.41009 29.6007 10.6725 30.1367C10.6725 30.1367 12.1421 30.4905 13.6516 30.7561C15.1606 31.0222 17.4917 30.9046 17.4917 31.7264C17.4917 32.1366 16.608 32.4798 14.7422 32.8177C12.9415 33.1561 10.8345 33.2182 8.48175 33.0182L6.67351 34.6956L6.80826 35.491L7.99777 42.4995L13.2746 41.3142L20.0912 39.7819C21.8278 39.403 23.2414 38.5277 24.2745 37.1761C25.2904 35.8481 25.6411 34.2165 25.2863 32.4615Z" fill="#A8AC06"/>
<path d="M31.235 23.2318C30.7914 23.4232 30.3362 23.5813 29.8628 23.657C29.4651 23.7182 29.1689 23.6975 29.015 23.617C28.9584 23.4969 28.8353 23.2019 28.8353 23.2019L28.531 22.0205C28.4563 21.5843 28.4664 21.417 28.473 21.337C28.6678 21.2281 29.0765 21.0598 29.9042 20.9268C30.4699 20.8429 30.75 20.8728 30.8893 20.9027C30.9438 21.0439 31.0261 21.3327 31.1301 21.9376C31.2577 22.6939 31.2512 23.0559 31.235 23.2318ZM33.2704 17.8843C29.3904 17.0022 22.8585 18.9684 22.6061 19.2634L21.6533 20.4491L22.8247 26.3355C23.5514 30.5966 23.6897 32.1468 23.6755 32.6996L23.6559 33.709L27.938 33.1479L29.0281 31.4907C29.0003 31.5259 27.4333 26.9202 27.4333 26.9202C28.6985 26.9829 29.7367 27.0065 31.2244 26.7742C32.7955 26.5284 33.9007 26.2362 34.5971 25.8834C35.2457 25.5648 35.3229 24.782 35.3486 24.0749C35.3597 23.3355 35.3259 22.5666 35.1937 21.7819C34.8323 19.6702 34.2721 18.1118 33.2704 17.8843Z" fill="#A8AC06"/>
<path d="M52.8054 26.6473C52.704 26.5808 52.6015 26.5495 52.4971 26.5528C52.1322 26.5673 51.8748 27.031 51.9344 27.5675C51.9757 27.9415 52.1584 28.2751 52.4077 28.4366C52.5092 28.5021 52.6121 28.533 52.7151 28.5301C53.08 28.5176 53.3384 28.0524 53.2788 27.5164C53.2369 27.1428 53.0562 26.8102 52.8054 26.6473Z" fill="#A8AC06"/>
<path d="M46.9747 25.2191C46.9257 25.1878 46.8758 25.1733 46.8263 25.1752C46.6502 25.181 46.524 25.4047 46.5543 25.6645C46.5745 25.8448 46.6618 26.0062 46.7829 26.0843C46.8319 26.1161 46.8828 26.1321 46.9318 26.1296C47.1074 26.1234 47.2316 25.8992 47.2038 25.6409C47.1841 25.4587 47.0963 25.2982 46.9747 25.2191Z" fill="#A8AC06"/>
<path d="M47.3718 31.3909C47.2386 31.3027 47.1008 31.2613 46.9636 31.2661C46.4786 31.2854 46.1359 31.9009 46.2156 32.6124C46.2706 33.1098 46.5114 33.5542 46.844 33.7682C46.9787 33.8574 47.116 33.8979 47.2527 33.8926C47.7372 33.8738 48.0814 33.2592 48.0012 32.5478C47.9462 32.0503 47.7054 31.6074 47.3718 31.3909Z" fill="#A8AC06"/>
<path d="M40.5167 23.9454C40.3875 24.3257 40.0141 25.1731 38.9523 27.0578C38.816 27.3007 38.6772 27.4593 38.1402 27.2915C37.8294 27.1961 37.5402 27.0259 37.2677 26.8274C37.2555 26.7073 37.2399 26.4523 37.305 25.9231C37.3903 25.2068 37.5765 24.4346 37.8465 23.6398C38.0398 23.0715 38.1937 22.7702 38.3002 22.5986C38.3461 22.6087 38.4042 22.6198 38.4042 22.6198L39.5508 23.0763C39.5649 23.0792 40.2705 23.3486 40.6288 23.485C40.6237 23.5757 40.598 23.7121 40.5167 23.9454ZM44.707 21.8269C44.3987 21.2186 39.5614 18.4277 35.9772 19.6511C35.2742 19.9311 34.7231 20.7674 34.175 22.3672C33.8157 23.4243 33.4983 24.7253 33.2318 26.2272C32.9926 27.6227 32.8755 28.6426 32.881 29.3425C32.8916 29.9383 33.2525 30.4965 34.0014 31.0542C34.6186 31.5164 35.3252 31.8659 36.167 32.1271C37.8289 32.6429 39.2495 32.5783 40.3911 31.9421C41.2147 31.4798 42.0348 30.63 42.8978 29.3416C43.6714 28.1939 44.2897 26.9507 44.7272 25.657C45.3555 23.8085 45.351 22.5899 44.7096 21.825L44.707 21.8269Z" fill="#A8AC06"/>
<path d="M42.0272 23.9686C41.8233 24.5659 41.2823 25.648 40.4062 27.2054C40.0524 27.8339 39.4816 28.0325 38.6828 27.7853C38.2543 27.6522 37.842 27.4416 37.4564 27.1331C37.2697 26.9904 37.2172 26.4872 37.3201 25.6374C37.4165 24.8377 37.6194 24.0188 37.896 23.2119C38.1609 22.4295 38.4269 21.9196 38.6843 21.6766C38.7741 21.5918 39.0229 21.5976 39.4211 21.7205C39.6623 21.7952 40.0635 21.9528 40.6449 22.2011C41.2101 22.4271 41.6149 22.5857 41.8566 22.6633C42.2261 22.778 42.2811 23.2172 42.0272 23.9686ZM41.2939 20.3781C39.3726 19.7809 38.0433 19.5837 37.0522 20.1245C36.5969 20.3072 36.1362 21.0587 35.684 22.39C35.3262 23.4442 35.0244 24.7056 34.7675 26.1464C34.5404 27.4652 34.4248 28.4606 34.4309 29.1364C34.4344 29.494 34.714 29.8695 35.257 30.2744C35.796 30.6774 36.4279 30.9936 37.1824 31.2274C38.6197 31.6713 39.8273 31.6409 40.7782 31.1078C41.4801 30.715 42.2336 29.9351 43.0325 28.7445C43.791 27.6127 44.1539 26.4183 44.5652 25.2108C45.0966 23.6457 45.1335 22.6132 44.6767 22.0642C44.3315 21.6901 42.9048 20.8707 41.2939 20.3781Z" fill="#FFF64D"/>
<path d="M36.1032 27.8886C35.7726 27.7753 35.3704 28.1016 35.224 28.6C35.1216 28.9466 35.1589 29.3052 35.3214 29.5356C35.3871 29.6292 35.4678 29.6923 35.5617 29.7236C35.8912 29.8355 36.295 29.5087 36.4413 29.0117C36.5428 28.6642 36.5059 28.307 36.3429 28.0766C36.2768 27.9826 36.1965 27.9199 36.1032 27.8886Z" fill="#A8AC06"/>
<path d="M42.1409 26.0222C41.9769 25.9499 41.7544 26.0983 41.6555 26.3485C41.5848 26.5235 41.5863 26.71 41.6595 26.8349C41.6883 26.8864 41.7281 26.9216 41.7735 26.9419C41.9371 27.0151 42.1606 26.8647 42.2606 26.6146C42.3292 26.4401 42.3282 26.255 42.2555 26.1287C42.2262 26.0776 42.1874 26.0424 42.1409 26.0222Z" fill="#A8AC06"/>
<path d="M75.0514 24.6133C74.9611 24.5516 74.8672 24.5217 74.7733 24.5266C74.4438 24.5434 74.2126 24.9893 74.2666 25.5022C74.3055 25.8603 74.47 26.1765 74.6971 26.3303C74.7885 26.391 74.8828 26.4199 74.9757 26.4156C75.3047 26.3992 75.5379 25.9524 75.4824 25.44C75.443 25.0823 75.278 24.7666 75.0514 24.6133Z" fill="#A8AC06"/>
<path d="M72.2581 22.8582C72.2036 22.8216 72.1476 22.8037 72.0921 22.8061C71.8947 22.8163 71.757 23.0833 71.7887 23.3889C71.813 23.6015 71.9109 23.7914 72.0456 23.8835C72.1006 23.9201 72.1567 23.9384 72.2127 23.9346C72.4085 23.9249 72.5478 23.6584 72.515 23.3523C72.4918 23.1383 72.3938 22.9503 72.2581 22.8582Z" fill="#A8AC06"/>
<path d="M70.5003 31.6101C70.4215 31.5547 70.3388 31.5296 70.257 31.5339C69.9693 31.5479 69.7665 31.9384 69.8134 32.3881C69.8472 32.699 69.9921 32.9781 70.1894 33.1106C70.2706 33.1646 70.3519 33.1897 70.4336 33.1868C70.7208 33.1714 70.9252 32.7814 70.8767 32.3327C70.8429 32.0193 70.6996 31.7422 70.5003 31.6101Z" fill="#A8AC06"/>
<path d="M64.0511 26.4406C63.9532 26.3639 63.8467 26.3172 63.7382 26.3051C63.3511 26.2622 63.015 26.6662 63.007 27.1896C63.0019 27.5526 63.1498 27.8982 63.3945 28.0915C63.492 28.1696 63.5979 28.2154 63.7085 28.2279C64.0955 28.2703 64.4317 27.8664 64.4392 27.3429C64.4438 26.98 64.2969 26.6343 64.0511 26.4406Z" fill="#A8AC06"/>
<path d="M57.2736 20.8273C56.9436 20.808 56.6615 21.2264 56.6544 21.7412C56.6504 22.1003 56.777 22.4329 56.9844 22.6098C57.0677 22.6811 57.157 22.7202 57.2504 22.726C57.5784 22.7448 57.8641 22.3273 57.8686 21.8116C57.8717 21.452 57.748 21.1184 57.5391 20.9434C57.4568 20.8707 57.3665 20.8321 57.2736 20.8273Z" fill="#A8AC06"/>
<path d="M65.0025 29.7729C64.8113 29.7603 64.6447 30.0047 64.6407 30.3074C64.6382 30.5166 64.7124 30.7119 64.834 30.8145C64.8819 30.8565 64.9349 30.8801 64.9899 30.883C65.1807 30.8936 65.3472 30.6492 65.3513 30.347C65.3528 30.1373 65.2806 29.943 65.1585 29.8404C65.1105 29.7975 65.0581 29.7748 65.0025 29.7729Z" fill="#A8AC06"/>
<path d="M24.7625 31.7387C24.5601 30.751 24.0736 29.7436 23.3484 28.7477C22.6908 27.8358 21.2706 27.0457 19.0582 26.5223C17.2176 26.073 15.3423 25.7279 13.4462 25.3056C11.5845 24.8829 10.5822 24.3797 10.4591 23.7743C10.4348 23.6518 10.4162 23.5333 10.4015 23.4171C10.2077 21.8356 11.0112 20.8696 12.8537 20.5269C12.9925 20.5018 13.1363 20.4806 13.2832 20.4623C15.3165 20.2059 18.1286 20.5857 21.7026 21.6028L20.6211 14.9292C19.1263 14.7972 17.6335 14.7673 16.1472 14.8376C14.6655 14.908 13.1908 15.0782 11.7298 15.3486C9.81913 15.7038 8.39494 16.1834 7.4295 16.7667C5.98867 17.9409 5.49358 19.6877 5.9599 21.998C6.18902 23.126 6.60739 24.1758 7.19433 25.1471C7.35178 25.4088 7.51883 25.6643 7.70051 25.9144C8.35861 26.8018 9.69094 27.5326 11.691 28.0054C13.3473 28.3906 15.0359 28.6769 16.7155 29.0331C18.3915 29.4033 19.2731 29.908 19.3741 30.5355C19.5633 31.7242 18.3355 32.5726 15.7011 33.0594C13.6486 33.4397 11.2726 33.4947 8.58621 33.2238L9.37451 37.8815L9.74544 40.0737L12.0614 39.5546L20.5202 37.6574C21.9772 37.3354 23.1399 36.5897 23.9681 35.5023C24.7821 34.4409 25.0537 33.1688 24.7625 31.7387Z" fill="#FFF64D"/>
<path d="M20.068 20.3412C19.9757 20.2656 19.8753 20.2232 19.7718 20.2179C19.4089 20.1942 19.1006 20.629 19.1006 21.1679C19.1006 21.5449 19.2459 21.8948 19.4766 22.0813C19.5704 22.1565 19.6699 22.198 19.7733 22.2057C20.1372 22.2284 20.4445 21.7921 20.4445 21.2532C20.4445 20.8773 20.3002 20.5268 20.068 20.3412Z" fill="#A8AC06"/>
<path d="M9.09103 24.6214C9.0017 24.5699 8.91086 24.5487 8.82355 24.5588C8.51368 24.5901 8.32342 24.9989 8.4077 25.4529C8.46574 25.7686 8.64187 26.0419 8.86493 26.1668C8.95527 26.2169 9.04561 26.2381 9.13291 26.228C9.44127 26.1972 9.63355 25.7865 9.54927 25.3324C9.49073 25.0181 9.3151 24.7439 9.09103 24.6214Z" fill="#A8AC06"/>
<path d="M22.7937 31.2212C22.6559 31.1291 22.5141 31.0848 22.3718 31.0886C21.8702 31.1012 21.5093 31.737 21.584 32.4759C21.6365 32.9892 21.8803 33.451 22.2244 33.6761C22.3622 33.7692 22.5056 33.8149 22.6464 33.8096C23.148 33.7961 23.5098 33.1618 23.4341 32.4219C23.3807 31.9076 23.1374 31.4463 22.7937 31.2212Z" fill="#A8AC06"/>
<path d="M8.87766 20.9229C8.91652 20.9441 8.95386 20.961 8.99171 20.9773C9.18097 21.0617 9.36921 21.0988 9.5519 21.0786C10.3321 20.999 10.8111 19.967 10.5986 18.8271C10.4517 18.0322 10.0091 17.3449 9.44693 17.0311C9.21983 16.9043 8.99424 16.8522 8.77319 16.8749C8.24985 16.9294 7.86377 17.4119 7.72852 18.0664C7.6619 18.3894 7.65585 18.7519 7.72499 19.1269C7.87336 19.9222 8.31596 20.6115 8.87766 20.9229Z" fill="#A8AC06"/>
<path d="M11.7597 35.4548C11.6204 35.354 11.4741 35.3049 11.3277 35.3049C10.8044 35.3058 10.4112 35.9546 10.4672 36.723C10.5061 37.2575 10.7473 37.7444 11.0966 37.9883C11.2379 38.0876 11.3832 38.1382 11.5306 38.1382C12.0509 38.1363 12.4445 37.487 12.3895 36.7191C12.3497 36.1817 12.1104 35.6977 11.7597 35.4548Z" fill="#A8AC06"/>
<path d="M21.1008 35.0725C21.0296 35.031 20.9564 35.0151 20.8848 35.0228C20.636 35.0479 20.4826 35.3781 20.5502 35.7425C20.5981 35.997 20.7389 36.2168 20.9186 36.3161C20.9908 36.3571 21.0634 36.3734 21.1351 36.3667C21.3839 36.3411 21.5378 36.0119 21.4697 35.647C21.4223 35.3916 21.282 35.1723 21.1008 35.0725Z" fill="#A8AC06"/>
<path d="M32.3512 23.2763C31.7885 23.5457 31.1779 23.7376 30.5243 23.8393C29.7643 23.9555 29.2394 23.8716 28.9003 23.6045C28.8004 23.5221 28.6737 23.2585 28.5178 22.8246C28.3633 22.3894 28.2538 21.9594 28.1771 21.5102C28.0489 20.7587 28.0863 20.2916 28.3023 20.1171C28.6651 19.825 29.3353 19.5941 30.2775 19.4462C31.1012 19.3184 31.6699 19.3695 32.0202 19.5956C32.1892 19.7098 32.3588 20.228 32.5178 21.1516C32.7313 22.4168 32.6742 23.1288 32.3512 23.2763ZM33.404 18.1948C32.437 17.7639 26.8846 17.8425 23.085 19.4235C23.3989 20.98 24.2134 25.4868 24.2114 25.5505C24.2134 25.5553 25.2076 32.0683 25.1718 32.1021L28.7817 31.5694C28.7817 31.5694 27.0613 26.4788 26.7776 25.4748C28.2412 25.6796 29.6881 25.5919 31.6018 25.2955C33.0785 25.0646 34.1221 24.7893 34.7096 24.4871C34.8776 24.4052 34.9644 24.0441 34.9866 23.3958C34.9927 22.7538 34.9352 22.0486 34.804 21.2706C34.5011 19.5035 34.0268 18.472 33.404 18.1948Z" fill="#FFF64D"/>
<path d="M33.7463 19.9896C33.6746 19.9491 33.602 19.9332 33.5323 19.9409C33.2845 19.9698 33.1361 20.298 33.2073 20.6596C33.2568 20.9107 33.4006 21.1295 33.5792 21.2254C33.6524 21.2645 33.7246 21.2799 33.7947 21.2727C34.042 21.2433 34.1899 20.915 34.1182 20.5545C34.0688 20.3033 33.926 20.085 33.7463 19.9896Z" fill="#A8AC06"/>
<path d="M26.091 29.837C26.0118 29.7921 25.9316 29.7748 25.8543 29.782C25.5808 29.8138 25.4163 30.1787 25.4955 30.5778C25.5505 30.856 25.709 31.0955 25.9078 31.203C25.9881 31.2459 26.0683 31.2647 26.144 31.2555C26.4191 31.2242 26.5826 30.8608 26.5034 30.4617C26.4488 30.1826 26.2904 29.9425 26.091 29.837Z" fill="#A8AC06"/>
<path d="M26.6528 21.6119C26.5357 21.5314 26.4111 21.4842 26.2839 21.4702C25.8327 21.4201 25.4678 21.8153 25.486 22.3335C25.4991 22.6955 25.6894 23.0435 25.9821 23.2402C26.0997 23.3202 26.2248 23.3689 26.3525 23.3823C26.8017 23.433 27.1676 23.0377 27.1479 22.5181C27.1348 22.1556 26.9455 21.809 26.6528 21.6119Z" fill="#A8AC06"/>
<g filter="url(#filter0_d_7_126)">
<path d="M28.7075 40.3219L31.8137 54.2794C32.8714 54.2794 34.3201 49.4462 36.1599 39.7798H37.3997C38.2263 39.7798 38.6396 40.3181 38.6396 41.3947C36.2843 52.13 34.6312 57.4977 33.6802 57.4977H27.4676L23.748 40.3219H28.7075Z" fill="#FFACEA"/>
<path d="M47.1852 39.7798H48.5984C53.3001 39.7798 55.6509 41.4101 55.6509 44.6707L46.4787 51.9954L47.1852 52.6068H50.0116C54.0111 52.6068 57.0685 52.1992 59.1838 51.3841V51.9954C58.5528 54.8484 57.8462 56.2749 57.0641 56.2749L41.5326 57.4977V52.6068L50.7182 44.6707L50.0116 44.0593H48.5984L40.1194 44.6707C40.1194 41.4101 42.4747 39.7798 47.1852 39.7798Z" fill="#FFACEA"/>
<path fill-rule="evenodd" clip-rule="evenodd" d="M35.1125 38.5142H37.3997C38.1094 38.5142 38.8339 38.7621 39.3335 39.4128C39.736 39.9371 39.8757 40.5767 39.9008 41.1811C40.238 40.7218 40.6585 40.3129 41.1656 39.9619C42.6517 38.9332 44.7231 38.5142 47.1852 38.5142H48.5984C51.0564 38.5142 53.1248 38.9333 54.609 39.9625C56.1773 41.0502 56.9165 42.693 56.9165 44.6707V45.2796L56.4407 45.6595L49.3259 51.3412H50.0116C53.9559 51.3412 56.8295 50.935 58.7288 50.2031L60.4494 49.5401V52.1336L60.4196 52.2685C60.097 53.7266 59.7365 54.9154 59.3146 55.7668C59.3146 55.7669 59.3146 55.7668 59.3146 55.7668C59.1043 56.1915 58.8454 56.6019 58.5122 56.9212C58.1805 57.2391 57.7139 57.5204 57.1267 57.5395L57.1427 57.5382L57.093 56.9074L57.1072 57.54C57.1137 57.5399 57.1202 57.5397 57.1267 57.5395L41.6319 58.7593L40.267 58.8667V52.0278L40.7052 51.6492L41.1189 52.128M38.8884 46.0283L40.2104 45.9329L47.9689 45.3736L40.7052 51.6492L41.1189 52.128M38.8884 46.0283C38.1218 49.2974 37.4399 51.9055 36.8428 53.8444C36.424 55.2044 36.032 56.2844 35.6637 57.0436C35.4825 57.4172 35.2774 57.7757 35.0391 58.0597C34.8469 58.2886 34.3912 58.7632 33.6802 58.7632H26.4468L26.2308 57.7655L22.1792 39.0564H29.7224L32.3312 50.7785C32.3803 50.6235 32.4303 50.4611 32.4813 50.2911C33.1863 47.9388 33.9988 44.3656 34.9167 39.5432L35.1125 38.5142M35.5389 39.6616L35.6362 39.6801ZM36.1599 39.7798L37.3997 39.7798C37.8144 39.7798 38.1237 39.9153 38.3297 40.1835M47.1852 39.7798C44.83 39.7798 43.0635 40.1874 41.8859 41.0025C40.7086 41.8174 40.1194 43.0399 40.1194 44.6707L48.5984 44.0593H51.4258L41.5326 52.6068L41.5326 57.4977L57.0611 56.2752L57.0788 56.2748C57.2677 56.2705 57.4541 56.1824 57.6365 56.0075C57.8226 55.8291 58.004 55.5616 58.1805 55.2051C58.5339 54.492 58.8683 53.4221 59.1838 51.9957M59.1838 51.9957C59.1838 51.9956 59.1838 51.9958 59.1838 51.9957L59.1838 51.3841C57.0685 52.1992 54.0111 52.6068 50.0116 52.6068H45.7131L55.6509 44.6707C55.6509 43.04 55.0629 41.8174 53.8878 41.0025C52.7124 40.1873 50.9492 39.7798 48.5984 39.7798H47.1852M23.748 40.322L27.4676 57.4976H33.6802C33.7387 57.4976 33.7977 57.4795 33.866 57.4352C33.9386 57.3882 34.0071 57.3206 34.0697 57.2461C34.2106 57.0783 34.3624 56.8266 34.5251 56.4912C34.8506 55.8202 35.2201 54.8138 35.6333 53.472C36.4598 50.7881 37.462 46.7624 38.6396 41.3947C38.6396 40.8562 38.5362 40.4526 38.3297 40.1835M23.748 40.322H28.7075L31.6491 53.5394L31.4226 53.1053C31.4082 53.1128 31.3901 53.1229 31.3702 53.1357C31.3614 53.1414 31.3446 53.1525 31.3246 53.1679C31.3164 53.1743 31.2948 53.1912 31.2698 53.2157C31.2587 53.2265 31.2319 53.2533 31.2033 53.2919C31.1891 53.3112 31.1645 53.3464 31.1414 53.3946C31.1218 53.4354 31.0791 53.5342 31.0791 53.6684H31.6778L31.9449 54.8686L32.7396 53.2559C33.0352 52.6561 33.3533 51.7897 33.6936 50.6545C34.4179 48.2379 35.24 44.6129 36.1599 39.7798M31.7164 53.6684L32.008 54.2273C32.0201 54.221 32.0365 54.2119 32.0553 54.1998C32.0635 54.1945 32.0799 54.1837 32.0996 54.1685C32.1077 54.1622 32.1292 54.1454 32.1541 54.121C32.1652 54.1102 32.1919 54.0835 32.2205 54.0449C32.2348 54.0256 32.2593 53.9903 32.2824 53.9421C32.302 53.9013 32.3447 53.8026 32.3447 53.6684H31.7164Z" fill="#DA2CAF"/>
</g>
</g>
<defs>
<filter id="filter0_d_7_126" x="19.648" y="38.5142" width="40.8014" height="22.8836" filterUnits="userSpaceOnUse" color-interpolation-filters="sRGB">
<feFlood flood-opacity="0" result="BackgroundImageFix"/>
<feColorMatrix in="SourceAlpha" type="matrix" values="0 0 0 0 0 0 0 0 0 0 0 0 0 0 0 0 0 0 127 0" result="hardAlpha"/>
<feOffset dx="-2.53113" dy="2.53113"/>
<feComposite in2="hardAlpha" operator="out"/>
<feColorMatrix type="matrix" values="0 0 0 0 0.854902 0 0 0 0 0.172549 0 0 0 0 0.686275 0 0 0 1 0"/>
<feBlend mode="normal" in2="BackgroundImageFix" result="effect1_dropShadow_7_126"/>
<feBlend mode="normal" in="SourceGraphic" in2="effect1_dropShadow_7_126" result="shape"/>
</filter>
</defs>
</svg>
